<svg width="28" height="24" viewBox="0 0 28 24" fill="none" xmlns="http://www.w3.org/2000/svg">
<path d="M27.0625 10.977C27.0635 9.90042 26.7996 8.84008 26.294 7.88951C25.7885 6.93895 25.0569 6.12737 24.1636 5.52632C23.2704 4.92527 22.243 4.55322 21.172 4.44298C20.101 4.33273 19.0194 4.48767 18.0224 4.89414C17.0255 5.3006 16.1438 5.94611 15.4552 6.77375C14.7666 7.60139 14.2923 8.58573 14.0739 9.63999C13.8555 10.6942 13.8999 11.786 14.2031 12.8191C14.5063 13.8521 15.059 14.7947 15.8125 15.5638V22.227C15.8124 22.3869 15.8532 22.5442 15.931 22.6839C16.0088 22.8236 16.121 22.941 16.257 23.0251C16.393 23.1092 16.5482 23.1571 16.7079 23.1643C16.8676 23.1715 17.0265 23.1377 17.1695 23.0661L20.5 21.3997L23.8305 23.0661C23.9735 23.1377 24.1324 23.1715 24.2921 23.1643C24.4518 23.1571 24.607 23.1092 24.743 23.0251C24.879 22.941 24.9912 22.8236 25.069 22.6839C25.1468 22.5442 25.1876 22.3869 25.1875 22.227V15.5638C26.3899 14.34 27.0633 12.6927 27.0625 10.977ZM20.5 6.28955C21.4271 6.28955 22.3334 6.56447 23.1042 7.07954C23.8751 7.59461 24.4759 8.32669 24.8307 9.18322C25.1855 10.0398 25.2783 10.9823 25.0974 11.8915C24.9166 12.8008 24.4701 13.6361 23.8146 14.2916C23.159 14.9472 22.3238 15.3936 21.4145 15.5745C20.5052 15.7553 19.5627 15.6625 18.7062 15.3077C17.8496 14.9529 17.1176 14.3521 16.6025 13.5813C16.0874 12.8104 15.8125 11.9042 15.8125 10.977C15.8125 9.73385 16.3064 8.54156 17.1854 7.66249C18.0645 6.78341 19.2568 6.28955 20.5 6.28955ZM20.9195 19.513C20.7893 19.4478 20.6456 19.4139 20.5 19.4139C20.3544 19.4139 20.2107 19.4478 20.0805 19.513L17.6875 20.7106V16.9056C18.5663 17.323 19.5271 17.5395 20.5 17.5395C21.4729 17.5395 22.4337 17.323 23.3125 16.9056V20.7106L20.9195 19.513ZM13.9375 18.477C13.9375 18.7257 13.8387 18.9641 13.6629 19.14C13.4871 19.3158 13.2486 19.4145 13 19.4145H2.6875C2.19022 19.4145 1.71331 19.217 1.36167 18.8654C1.01004 18.5137 0.8125 18.0368 0.8125 17.5395V2.53955C0.8125 2.04227 1.01004 1.56536 1.36167 1.21373C1.71331 0.862095 2.19022 0.664551 2.6875 0.664551H23.3125C23.8098 0.664551 24.2867 0.862095 24.6383 1.21373C24.99 1.56536 25.1875 2.04227 25.1875 2.53955C25.1875 2.78819 25.0887 3.02665 24.9129 3.20246C24.7371 3.37828 24.4986 3.47705 24.25 3.47705C24.0014 3.47705 23.7629 3.37828 23.5871 3.20246C23.4113 3.02665 23.3125 2.78819 23.3125 2.53955H2.6875V17.5395H13C13.2486 17.5395 13.4871 17.6383 13.6629 17.8141C13.8387 17.99 13.9375 18.2284 13.9375 18.477ZM12.0625 11.9145C12.0625 12.1632 11.9637 12.4016 11.7879 12.5775C11.6121 12.7533 11.3736 12.852 11.125 12.852H6.4375C6.18886 12.852 5.9504 12.7533 5.77459 12.5775C5.59877 12.4016 5.5 12.1632 5.5 11.9145C5.5 11.6659 5.59877 11.4275 5.77459 11.2516C5.9504 11.0758 6.18886 10.977 6.4375 10.977H11.125C11.3736 10.977 11.6121 11.0758 11.7879 11.2516C11.9637 11.4275 12.0625 11.6659 12.0625 11.9145ZM12.0625 8.16455C12.0625 8.41319 11.9637 8.65165 11.7879 8.82746C11.6121 9.00328 11.3736 9.10205 11.125 9.10205H6.4375C6.18886 9.10205 5.9504 9.00328 5.77459 8.82746C5.59877 8.65165 5.5 8.41319 5.5 8.16455C5.5 7.91591 5.59877 7.67745 5.77459 7.50164C5.9504 7.32582 6.18886 7.22705 6.4375 7.22705H11.125C11.3736 7.22705 11.6121 7.32582 11.7879 7.50164C11.9637 7.67745 12.0625 7.91591 12.0625 8.16455Z" fill="white"/>
</svg>
