<svg width="29" height="32" viewBox="0 0 29 32" fill="none" xmlns="http://www.w3.org/2000/svg">
<path d="M9.7972 30.312H5.01135C2.63028 30.312 1.4812 29.0729 1.4812 26.5147V5.46327C1.4812 2.90512 2.64212 1.66602 5.01135 1.66602H9.7972C12.1783 1.66602 13.3274 2.90512 13.3274 5.46327V26.5147C13.3274 29.0729 12.1664 30.312 9.7972 30.312ZM5.01135 3.66457C3.50689 3.66457 3.25812 4.11758 3.25812 5.46327V26.5147C3.25812 27.8604 3.50689 28.3134 5.01135 28.3134H9.7972C11.3017 28.3134 11.5504 27.8604 11.5504 26.5147V5.46327C11.5504 4.11758 11.3017 3.66457 9.7972 3.66457H5.01135Z" fill="white"/>
<path d="M23.4198 18.3207H18.6339C16.2528 18.3207 15.1038 17.0815 15.1038 14.5234V5.46327C15.1038 2.90512 16.2647 1.66602 18.6339 1.66602H23.4198C25.8008 1.66602 26.9499 2.90512 26.9499 5.46327V14.5234C26.9499 17.0815 25.789 18.3207 23.4198 18.3207ZM18.6339 3.66457C17.1295 3.66457 16.8807 4.11758 16.8807 5.46327V14.5234C16.8807 15.8691 17.1295 16.3221 18.6339 16.3221H23.4198C24.9242 16.3221 25.173 15.8691 25.173 14.5234V5.46327C25.173 4.11758 24.9242 3.66457 23.4198 3.66457H18.6339Z" fill="white"/>
<path d="M23.4198 30.3111H18.6339C16.2528 30.3111 15.1038 29.072 15.1038 26.5139V24.1156C15.1038 21.5575 16.2647 20.3184 18.6339 20.3184H23.4198C25.8008 20.3184 26.9499 21.5575 26.9499 24.1156V26.5139C26.9499 29.072 25.789 30.3111 23.4198 30.3111ZM18.6339 22.3169C17.1295 22.3169 16.8807 22.7699 16.8807 24.1156V26.5139C16.8807 27.8596 17.1295 28.3126 18.6339 28.3126H23.4198C24.9242 28.3126 25.173 27.8596 25.173 26.5139V24.1156C25.173 22.7699 24.9242 22.3169 23.4198 22.3169H18.6339Z" fill="white"/>
</svg>
