<svg width="14" height="12" viewBox="0 0 14 12" fill="none" xmlns="http://www.w3.org/2000/svg">
<path d="M0.333008 2.99967C0.333008 1.74234 0.333008 1.11434 0.723674 0.723674C1.11434 0.333008 1.74234 0.333008 2.99967 0.333008H10.9997C12.257 0.333008 12.885 0.333008 13.2757 0.723674C13.6663 1.11434 13.6663 1.74234 13.6663 2.99967C13.6663 3.31367 13.6663 3.47101 13.569 3.56901C13.471 3.66634 13.313 3.66634 12.9997 3.66634H0.999674C0.685674 3.66634 0.528341 3.66634 0.430341 3.56901C0.333008 3.47101 0.333008 3.31301 0.333008 2.99967ZM0.333008 8.99967C0.333008 10.257 0.333008 10.885 0.723674 11.2757C1.11434 11.6663 1.74234 11.6663 2.99967 11.6663H10.9997C12.257 11.6663 12.885 11.6663 13.2757 11.2757C13.6663 10.885 13.6663 10.257 13.6663 8.99967V5.66634C13.6663 5.35234 13.6663 5.19501 13.569 5.09701C13.471 4.99967 13.313 4.99967 12.9997 4.99967H0.999674C0.685674 4.99967 0.528341 4.99967 0.430341 5.09701C0.333008 5.19501 0.333008 5.35301 0.333008 5.66634V8.99967Z" fill="#00BE64"/>
</svg>
