<svg width="9" height="9" viewBox="0 0 9 9" fill="none" xmlns="http://www.w3.org/2000/svg">
<path d="M2.86719 0.976562H2.78125C2.82852 0.976562 2.86719 0.937891 2.86719 0.890625V0.976562H6.13281V0.890625C6.13281 0.937891 6.17148 0.976562 6.21875 0.976562H6.13281V1.75H6.90625V0.890625C6.90625 0.511426 6.59795 0.203125 6.21875 0.203125H2.78125C2.40205 0.203125 2.09375 0.511426 2.09375 0.890625V1.75H2.86719V0.976562ZM8.28125 1.75H0.71875C0.528613 1.75 0.375 1.90361 0.375 2.09375V2.4375C0.375 2.48477 0.413672 2.52344 0.460938 2.52344H1.10977L1.3751 8.1416C1.39229 8.50791 1.69521 8.79688 2.06152 8.79688H6.93848C7.30586 8.79688 7.60772 8.50898 7.6249 8.1416L7.89023 2.52344H8.53906C8.58633 2.52344 8.625 2.48477 8.625 2.4375V2.09375C8.625 1.90361 8.47139 1.75 8.28125 1.75ZM6.85576 8.02344H2.14424L1.88428 2.52344H7.11572L6.85576 8.02344Z" fill="#00BE64"/>
</svg>
