<svg width="12" height="12" viewBox="0 0 12 12" fill="none" xmlns="http://www.w3.org/2000/svg">
<path d="M6.63755 0.260742C6.80009 0.260922 6.95642 0.323158 7.0746 0.434732C7.19279 0.546307 7.26391 0.698799 7.27343 0.861052C7.28296 1.0233 7.23017 1.18307 7.12585 1.30771C7.02153 1.43234 6.87356 1.51244 6.71216 1.53164L6.63755 1.5361H1.5361V10.4636H10.4636V5.36219C10.4638 5.19966 10.5261 5.04333 10.6376 4.92515C10.7492 4.80696 10.9017 4.73584 11.064 4.72631C11.2262 4.71679 11.386 4.76958 11.5106 4.8739C11.6352 4.97821 11.7153 5.12619 11.7345 5.28758L11.739 5.36219V10.4636C11.7391 10.7854 11.6176 11.0953 11.3988 11.3312C11.18 11.5672 10.8801 11.7117 10.5593 11.7358L10.4636 11.739H1.5361C1.21435 11.7391 0.904439 11.6176 0.668509 11.3988C0.432579 11.18 0.288063 10.8801 0.263931 10.5593L0.260742 10.4636V1.5361C0.26064 1.21435 0.382161 0.904439 0.600943 0.668509C0.819726 0.432579 1.1196 0.288063 1.44045 0.263931L1.5361 0.260742H6.63755ZM10.6186 0.479467C10.7334 0.3651 10.8873 0.298701 11.0493 0.293756C11.2112 0.288811 11.369 0.345691 11.4905 0.452843C11.612 0.559995 11.6882 0.709384 11.7035 0.870668C11.7189 1.03195 11.6723 1.19304 11.5732 1.32121L11.5203 1.38179L5.20724 7.69419C5.09248 7.80856 4.93849 7.87496 4.77656 7.8799C4.61462 7.88485 4.45687 7.82797 4.33535 7.72082C4.21383 7.61366 4.13765 7.46427 4.12229 7.30299C4.10692 7.14171 4.15352 6.98062 4.25263 6.85245L4.30555 6.79251L10.6186 0.479467Z" fill="#00BE64"/>
</svg>
