<svg width="30" height="30" viewBox="0 0 30 30" fill="none" xmlns="http://www.w3.org/2000/svg">
<path d="M22.5 18.75H7.5L2.5 23.75V3.75C2.5 3.41848 2.6317 3.10054 2.86612 2.86612C3.10054 2.6317 3.41848 2.5 3.75 2.5H22.5C22.8315 2.5 23.1495 2.6317 23.3839 2.86612C23.6183 3.10054 23.75 3.41848 23.75 3.75V17.5C23.75 17.8315 23.6183 18.1495 23.3839 18.3839C23.1495 18.6183 22.8315 18.75 22.5 18.75ZM28.75 11.25V28.75L23.75 23.75H10C9.66848 23.75 9.35054 23.6183 9.11612 23.3839C8.8817 23.1495 8.75 22.8315 8.75 22.5V21.25H26.25V10H27.5C27.8315 10 28.1495 10.1317 28.3839 10.3661C28.6183 10.6005 28.75 10.9185 28.75 11.25ZM10.2375 5C9.15 5 8.275 5.25 7.6 5.7375C6.95 6.25 6.625 6.9625 6.6375 7.95L6.65 7.9875H9.0625C9.075 7.6125 9.1875 7.325 9.4125 7.125C9.64397 6.93305 9.93687 6.83098 10.2375 6.8375C10.625 6.8375 10.95 6.9625 11.175 7.1875C11.4 7.425 11.5 7.75 11.5 8.125C11.5 8.525 11.4125 8.8625 11.2125 9.15C11.0375 9.4375 10.775 9.6875 10.45 9.8875C9.8125 10.3125 9.375 10.6875 9.1375 11.025C8.8875 11.35 8.75 11.875 8.75 12.5H11.25C11.25 12.1125 11.3 11.8 11.4125 11.575C11.525 11.35 11.7375 11.125 12.05 10.925C12.6125 10.625 13.075 10.2625 13.4375 9.7625C13.8 9.2625 13.9875 8.75 13.9875 8.125C13.9875 7.175 13.65 6.4125 12.975 5.85C12.3125 5.2875 11.4 5 10.2375 5ZM8.75 13.75V16.25H11.25V13.75H8.75ZM16.25 16.25H18.75V13.75H16.25V16.25ZM16.25 5V12.5H18.75V5H16.25Z" fill="white"/>
</svg>
