<svg width="16" height="14" viewBox="0 0 16 14" fill="none" xmlns="http://www.w3.org/2000/svg">
<path fill-rule="evenodd" clip-rule="evenodd" d="M3.30167 0.5H12.6977C13.1423 0.5 13.5223 0.5 13.8263 0.538C14.1483 0.578667 14.4597 0.67 14.7157 0.91C14.9757 1.15467 15.079 1.45933 15.1243 1.776C15.1663 2.06733 15.1663 2.42933 15.1663 2.84267V3.36C15.1663 3.686 15.1663 3.96667 15.1423 4.202C15.1157 4.45533 15.059 4.692 14.9217 4.91933C14.785 5.14533 14.6017 5.30933 14.3897 5.456C14.1903 5.59467 13.9363 5.738 13.6363 5.90667L11.675 7.01067C11.2283 7.262 11.073 7.35267 10.969 7.44267C10.731 7.64933 10.5943 7.87933 10.5303 8.16667C10.503 8.29 10.4997 8.44467 10.4997 8.91533V10.7367C10.4997 11.3373 10.4997 11.8473 10.4377 12.24C10.3723 12.6567 10.2197 13.0567 9.81967 13.3067C9.42834 13.5513 8.99834 13.5287 8.57967 13.4293C8.17634 13.334 7.67967 13.1393 7.08367 12.9067L7.02634 12.884C6.74634 12.7747 6.50234 12.6793 6.30901 12.5793C6.10101 12.472 5.90767 12.3387 5.76034 12.1307C5.61034 11.92 5.55101 11.6947 5.52367 11.464C5.49967 11.254 5.49967 11.002 5.49967 10.7207V8.91533C5.49967 8.44467 5.49701 8.29 5.46901 8.16667C5.40848 7.88282 5.25392 7.62772 5.03034 7.44267C4.92634 7.35267 4.77034 7.262 4.32434 7.01067L2.36301 5.90667C2.06301 5.738 1.80901 5.59467 1.60967 5.456C1.39767 5.30933 1.21434 5.14533 1.07767 4.91933C0.940341 4.692 0.883674 4.45467 0.857674 4.202C0.833008 3.96733 0.833008 3.686 0.833008 3.36V2.84267C0.833008 2.42933 0.833008 2.06733 0.875008 1.776C0.920341 1.45933 1.02367 1.15467 1.28367 0.91C1.53967 0.67 1.85034 0.578667 2.17301 0.538C2.47701 0.5 2.85701 0.5 3.30167 0.5ZM2.29834 1.53067C2.07567 1.55867 2.00501 1.604 1.96834 1.63933C1.93501 1.67 1.89234 1.724 1.86434 1.918C1.83434 2.13 1.83301 2.41933 1.83301 2.87667V3.33667C1.83301 3.69267 1.83301 3.922 1.85167 4.09933C1.86901 4.264 1.89834 4.34333 1.93434 4.40267C1.97101 4.46333 2.03234 4.532 2.17967 4.63467C2.33567 4.74267 2.54834 4.86333 2.87301 5.046L4.81501 6.13933L4.86834 6.16933C5.24167 6.37933 5.49501 6.522 5.68567 6.68733C6.07129 7.01264 6.33849 7.45635 6.44567 7.94933C6.49967 8.194 6.49967 8.46933 6.49967 8.856V10.6953C6.49967 11.01 6.50034 11.2033 6.51767 11.3487C6.53234 11.4807 6.55701 11.5253 6.57501 11.5513C6.59501 11.5793 6.63501 11.6227 6.76767 11.6913C6.90901 11.764 7.10434 11.8407 7.41234 11.9613C8.05301 12.212 8.48434 12.3793 8.81034 12.4567C9.12967 12.5327 9.23501 12.4933 9.28901 12.4593C9.33434 12.4307 9.40434 12.3727 9.45034 12.084C9.49834 11.7793 9.49967 11.3487 9.49967 10.6947V8.856C9.49967 8.46933 9.49967 8.194 9.55434 7.94933C9.66134 7.45643 9.92831 7.01274 10.3137 6.68733C10.5043 6.522 10.7583 6.37867 11.1303 6.16933L11.1843 6.13933L13.1263 5.046C13.451 4.86333 13.6637 4.74267 13.8197 4.63467C13.967 4.532 14.0283 4.46333 14.065 4.40267C14.101 4.34333 14.1303 4.264 14.147 4.09933C14.1657 3.922 14.1663 3.69267 14.1663 3.336V2.876C14.1663 2.41933 14.165 2.12933 14.135 1.918C14.107 1.724 14.0637 1.67 14.0317 1.63933C13.9943 1.60467 13.9237 1.55867 13.701 1.53067C13.4677 1.50067 13.151 1.5 12.6663 1.5H3.33301C2.84834 1.5 2.53234 1.50067 2.29834 1.53067Z" fill="#00BE64"/>
</svg>
