<svg width="30" height="30" viewBox="0 0 30 30" fill="none" xmlns="http://www.w3.org/2000/svg">
<path d="M14.9375 22.5C15.375 22.5 15.745 22.3487 16.0475 22.0462C16.35 21.7437 16.5008 21.3742 16.5 20.9375C16.5 20.5 16.3492 20.13 16.0475 19.8275C15.7458 19.525 15.3758 19.3742 14.9375 19.375C14.5 19.375 14.1304 19.5263 13.8287 19.8288C13.5271 20.1313 13.3758 20.5008 13.375 20.9375C13.375 21.375 13.5262 21.745 13.8287 22.0475C14.1312 22.35 14.5008 22.5008 14.9375 22.5ZM13.8125 17.6875H16.125C16.125 17 16.2033 16.4583 16.36 16.0625C16.5167 15.6667 16.9592 15.125 17.6875 14.4375C18.2292 13.8958 18.6562 13.38 18.9688 12.89C19.2812 12.4 19.4375 11.8117 19.4375 11.125C19.4375 9.95833 19.0104 9.0625 18.1562 8.4375C17.3021 7.8125 16.2917 7.5 15.125 7.5C13.9375 7.5 12.9737 7.8125 12.2337 8.4375C11.4937 9.0625 10.9783 9.8125 10.6875 10.6875L12.75 11.5C12.8542 11.125 13.0887 10.7188 13.4537 10.2813C13.8187 9.84375 14.3758 9.625 15.125 9.625C15.7917 9.625 16.2917 9.8075 16.625 10.1725C16.9583 10.5375 17.125 10.9383 17.125 11.375C17.125 11.7917 17 12.1825 16.75 12.5475C16.5 12.9125 16.1875 13.2508 15.8125 13.5625C14.8958 14.375 14.3333 14.9896 14.125 15.4062C13.9167 15.8229 13.8125 16.5833 13.8125 17.6875ZM15 27.5C13.2708 27.5 11.6458 27.1717 10.125 26.515C8.60417 25.8583 7.28125 24.9679 6.15625 23.8438C5.03125 22.7188 4.14083 21.3958 3.485 19.875C2.82917 18.3542 2.50083 16.7292 2.5 15C2.5 13.2708 2.82833 11.6458 3.485 10.125C4.14167 8.60417 5.03208 7.28125 6.15625 6.15625C7.28125 5.03125 8.60417 4.14083 10.125 3.485C11.6458 2.82917 13.2708 2.50083 15 2.5C16.7292 2.5 18.3542 2.82833 19.875 3.485C21.3958 4.14167 22.7188 5.03208 23.8438 6.15625C24.9688 7.28125 25.8596 8.60417 26.5162 10.125C27.1729 11.6458 27.5008 13.2708 27.5 15C27.5 16.7292 27.1717 18.3542 26.515 19.875C25.8583 21.3958 24.9679 22.7188 23.8438 23.8438C22.7188 24.9688 21.3958 25.8596 19.875 26.5162C18.3542 27.1729 16.7292 27.5008 15 27.5ZM15 25C17.7917 25 20.1562 24.0312 22.0938 22.0938C24.0312 20.1562 25 17.7917 25 15C25 12.2083 24.0312 9.84375 22.0938 7.90625C20.1562 5.96875 17.7917 5 15 5C12.2083 5 9.84375 5.96875 7.90625 7.90625C5.96875 9.84375 5 12.2083 5 15C5 17.7917 5.96875 20.1562 7.90625 22.0938C9.84375 24.0312 12.2083 25 15 25Z" fill="white"/>
</svg>
