<svg width="30" height="30" viewBox="0 0 30 30" fill="none" xmlns="http://www.w3.org/2000/svg">
<path d="M3.75 7.1875C3.75 6.93886 3.84877 6.7004 4.02459 6.52459C4.2004 6.34877 4.43886 6.25 4.6875 6.25C8.01625 6.25 11.26 5.07125 14.4375 2.6875C14.5998 2.56579 14.7972 2.5 15 2.5C15.2028 2.5 15.4002 2.56579 15.5625 2.6875C18.74 5.07125 21.9837 6.25 25.3125 6.25C25.5611 6.25 25.7996 6.34877 25.9754 6.52459C26.1512 6.7004 26.25 6.93886 26.25 7.1875V13.75C26.25 20.0012 22.5525 24.595 15.3438 27.435C15.1229 27.5221 14.8771 27.5221 14.6562 27.435C7.4475 24.595 3.75 20 3.75 13.75V7.1875ZM5.625 8.0975V13.75C5.625 19.07 8.69125 22.9737 15 25.5525C21.3088 22.9737 24.375 19.07 24.375 13.75V8.0975C21.1537 7.9075 18.025 6.735 15 4.5975C11.975 6.735 8.84625 7.9075 5.625 8.0975ZM16.25 20C16.25 20.3315 16.1183 20.6495 15.8839 20.8839C15.6495 21.1183 15.3315 21.25 15 21.25C14.6685 21.25 14.3505 21.1183 14.1161 20.8839C13.8817 20.6495 13.75 20.3315 13.75 20C13.75 19.6685 13.8817 19.3505 14.1161 19.1161C14.3505 18.8817 14.6685 18.75 15 18.75C15.3315 18.75 15.6495 18.8817 15.8839 19.1161C16.1183 19.3505 16.25 19.6685 16.25 20ZM13.4375 12.1875C13.4375 11.7731 13.6021 11.3757 13.8951 11.0826C14.1882 10.7896 14.5856 10.625 15 10.625C15.4144 10.625 15.8118 10.7896 16.1049 11.0826C16.3979 11.3757 16.5625 11.7731 16.5625 12.1875C16.5625 12.7463 16.2525 13.1087 15.5875 13.7725L15.5288 13.8312C14.9413 14.4162 14.0625 15.29 14.0625 16.6875C14.0625 16.9361 14.1613 17.1746 14.3371 17.3504C14.5129 17.5262 14.7514 17.625 15 17.625C15.2486 17.625 15.4871 17.5262 15.6629 17.3504C15.8387 17.1746 15.9375 16.9361 15.9375 16.6875C15.9375 16.125 16.2487 15.7625 16.9125 15.1L16.9738 15.0375C17.5613 14.4537 18.4375 13.5813 18.4375 12.1875C18.4375 11.2758 18.0753 10.4015 17.4307 9.75682C16.786 9.11216 15.9117 8.75 15 8.75C14.0883 8.75 13.214 9.11216 12.5693 9.75682C11.9247 10.4015 11.5625 11.2758 11.5625 12.1875C11.5625 12.4361 11.6613 12.6746 11.8371 12.8504C12.0129 13.0262 12.2514 13.125 12.5 13.125C12.7486 13.125 12.9871 13.0262 13.1629 12.8504C13.3387 12.6746 13.4375 12.4361 13.4375 12.1875Z" fill="white"/>
</svg>
