<svg width="29" height="30" viewBox="0 0 29 30" fill="none" xmlns="http://www.w3.org/2000/svg">
<path fill-rule="evenodd" clip-rule="evenodd" d="M26.0999 14.9999C26.0999 21.4064 20.9064 26.5999 14.4999 26.5999C8.0934 26.5999 2.8999 21.4064 2.8999 14.9999C2.8999 8.5934 8.0934 3.3999 14.4999 3.3999C20.9064 3.3999 26.0999 8.5934 26.0999 14.9999ZM14.4999 10.6499C13.965 10.6499 13.4959 10.9388 13.243 11.376C12.842 12.0691 11.955 12.306 11.2618 11.905C10.5686 11.504 10.3318 10.617 10.7328 9.92385C11.4827 8.62741 12.888 7.7499 14.4999 7.7499C16.9024 7.7499 18.8499 9.69746 18.8499 12.0999C18.8499 13.9939 17.6395 15.6052 15.9499 16.2024V16.4499C15.9499 17.2507 15.3007 17.8999 14.4999 17.8999C13.6991 17.8999 13.0499 17.2507 13.0499 16.4499V14.9999C13.0499 14.1991 13.6991 13.5499 14.4999 13.5499C15.3007 13.5499 15.9499 12.9007 15.9499 12.0999C15.9499 11.2991 15.3007 10.6499 14.4999 10.6499ZM14.4999 22.2499C15.3007 22.2499 15.9499 21.6007 15.9499 20.7999C15.9499 19.9991 15.3007 19.3499 14.4999 19.3499C13.6991 19.3499 13.0499 19.9991 13.0499 20.7999C13.0499 21.6007 13.6991 22.2499 14.4999 22.2499Z" fill="#FF8F1F"/>
</svg>
