<svg width="30" height="31" viewBox="0 0 30 31" fill="none" xmlns="http://www.w3.org/2000/svg">
<path d="M12.6827 4.56039C12.8695 4.09878 13.1898 3.70347 13.6027 3.42511C14.0156 3.14675 14.5022 2.99805 15.0002 2.99805C15.4981 2.99805 15.9848 3.14675 16.3977 3.42511C16.8106 3.70347 17.1309 4.09878 17.3177 4.56039C19.1661 5.06875 20.7966 6.16984 21.9586 7.69456C23.1207 9.21929 23.7501 11.0833 23.7502 13.0004V18.8716L26.0402 22.3066C26.1658 22.4949 26.2379 22.7137 26.2489 22.9397C26.2599 23.1658 26.2093 23.3906 26.1025 23.5901C25.9958 23.7896 25.8368 23.9564 25.6427 24.0727C25.4486 24.189 25.2265 24.2504 25.0002 24.2504H19.3314C19.1809 25.2918 18.6603 26.2441 17.8648 26.9328C17.0694 27.6216 16.0524 28.0007 15.0002 28.0007C13.948 28.0007 12.931 27.6216 12.1356 26.9328C11.3401 26.2441 10.8194 25.2918 10.6689 24.2504H5.00019C4.77388 24.2504 4.55182 24.189 4.35768 24.0727C4.16354 23.9564 4.00461 23.7896 3.89784 23.5901C3.79108 23.3906 3.74049 23.1658 3.75147 22.9397C3.76245 22.7137 3.83459 22.4949 3.96019 22.3066L6.25019 18.8716V13.0004C6.25019 8.97039 8.97519 5.57539 12.6827 4.56039ZM13.2327 24.2504C13.3618 24.6162 13.6012 24.933 13.9178 25.157C14.2345 25.3811 14.6129 25.5014 15.0008 25.5014C15.3887 25.5014 15.7671 25.3811 16.0838 25.157C16.4005 24.933 16.6398 24.6162 16.7689 24.2504H13.2314H13.2327ZM15.0002 6.75039C13.3426 6.75039 11.7529 7.40887 10.5808 8.58098C9.40867 9.75308 8.75019 11.3428 8.75019 13.0004V19.2504C8.75024 19.4973 8.67717 19.7387 8.54019 19.9441L7.33644 21.7504H22.6627L21.4589 19.9441C21.3224 19.7386 21.2498 19.4972 21.2502 19.2504V13.0004C21.2502 11.3428 20.5917 9.75308 19.4196 8.58098C18.2475 7.40887 16.6578 6.75039 15.0002 6.75039Z" fill="#171717"/>
<circle cx="21.25" cy="8" r="4.375" fill="#FF8F1F" stroke="#EBEBEB" stroke-width="1.25"/>
</svg>
