<svg width="26" height="28" viewBox="0 0 26 28" fill="none" xmlns="http://www.w3.org/2000/svg">
<path fill-rule="evenodd" clip-rule="evenodd" d="M12.9687 0.539551C12.4125 0.539551 11.9487 0.539551 11.5687 0.564551C11.1803 0.580725 10.7972 0.660973 10.435 0.802051C10.0178 0.974663 9.63868 1.22777 9.31932 1.54691C8.99996 1.86605 8.7466 2.24498 8.57371 2.66205C8.39246 3.09955 8.34371 3.56205 8.32371 4.06455C8.32171 4.24833 8.27306 4.42858 8.18233 4.58841C8.09159 4.74824 7.96174 4.8824 7.80496 4.9783C7.64357 5.06643 7.46242 5.11209 7.27853 5.111C7.09464 5.1099 6.91405 5.06209 6.75371 4.97205C6.30871 4.73705 5.88371 4.5483 5.41371 4.4858C4.96614 4.42693 4.51136 4.45679 4.07533 4.57368C3.6393 4.69057 3.23057 4.8922 2.87246 5.16705C2.56968 5.41065 2.30911 5.70248 2.10121 6.0308C1.88871 6.3483 1.65621 6.74955 1.37871 7.2308L1.34746 7.2858C1.06871 7.76705 0.837463 8.1683 0.669963 8.5108C0.494963 8.8683 0.357463 9.2208 0.307463 9.6108C0.188213 10.5145 0.432812 11.4286 0.987463 12.1521C1.27621 12.5283 1.65246 12.8021 2.07746 13.0696C2.23591 13.1632 2.36793 13.2957 2.46108 13.4544C2.55424 13.6132 2.60547 13.793 2.60996 13.9771C2.60547 14.1611 2.55424 14.3409 2.46108 14.4997C2.36793 14.6584 2.23591 14.7909 2.07746 14.8846C1.65246 15.1521 1.27746 15.4258 0.987463 15.8021C0.712609 16.1602 0.510981 16.5689 0.394091 17.0049C0.277202 17.4409 0.247341 17.8957 0.306213 18.3433C0.357463 18.7333 0.493713 19.0858 0.668713 19.4433C0.837463 19.7858 1.06871 20.1871 1.34746 20.6683L1.37871 20.7233C1.65621 21.2045 1.88871 21.6058 2.10121 21.9233C2.32246 22.2521 2.55996 22.5483 2.87246 22.7858C3.23047 23.0609 3.63917 23.2627 4.0752 23.3798C4.51123 23.4969 4.96606 23.527 5.41371 23.4683C5.88371 23.4058 6.30871 23.2183 6.75371 22.9821C6.91386 22.8921 7.09424 22.8444 7.27791 22.8433C7.46157 22.8422 7.64251 22.8878 7.80371 22.9758C7.96136 23.071 8.09203 23.2049 8.18327 23.3648C8.27451 23.5248 8.32329 23.7054 8.32496 23.8896C8.34371 24.3921 8.39246 24.8546 8.57496 25.2921C8.74757 25.7092 9.00068 26.0883 9.31982 26.4077C9.63896 26.727 10.0179 26.9804 10.435 27.1533C10.7975 27.3033 11.1725 27.3621 11.5687 27.3883C11.9487 27.4146 12.4125 27.4146 12.9687 27.4146H13.0312C13.5875 27.4146 14.0512 27.4146 14.4312 27.3895C14.8287 27.3621 15.2025 27.3033 15.565 27.1521C15.9822 26.9794 16.3612 26.7263 16.6806 26.4072C17 26.088 17.2533 25.7091 17.4262 25.2921C17.6075 24.8546 17.6562 24.3921 17.6762 23.8896C17.678 23.7056 17.7266 23.5251 17.8173 23.365C17.908 23.2049 18.038 23.0706 18.195 22.9746C18.3565 22.8866 18.5377 22.8412 18.7216 22.8425C18.9054 22.8438 19.086 22.8918 19.2462 22.9821C19.6912 23.2171 20.1162 23.4058 20.5862 23.467C21.49 23.5863 22.404 23.3417 23.1275 22.7871C23.44 22.5471 23.6775 22.2521 23.8987 21.9233C24.1112 21.6058 24.3437 21.2045 24.6212 20.7233L24.6525 20.6683C24.9312 20.1871 25.1625 19.7858 25.33 19.4433C25.505 19.0858 25.6425 18.732 25.6925 18.3433C25.8117 17.4396 25.5671 16.5255 25.0125 15.8021C24.7237 15.4258 24.3475 15.1521 23.9225 14.8846C23.764 14.7909 23.632 14.6584 23.5388 14.4997C23.4457 14.3409 23.3945 14.1611 23.39 13.9771C23.39 13.6296 23.58 13.2846 23.9225 13.0696C24.3475 12.8021 24.7225 12.5283 25.0125 12.1521C25.2873 11.7939 25.4889 11.3852 25.6058 10.9492C25.7227 10.5132 25.7526 10.0584 25.6937 9.6108C25.6342 9.22669 25.5117 8.85503 25.3312 8.5108C25.1178 8.09548 24.8914 7.68695 24.6525 7.2858L24.6212 7.2308C24.3929 6.82341 24.1519 6.42322 23.8987 6.0308C23.6908 5.70282 23.4302 5.41141 23.1275 5.1683C22.7694 4.89323 22.3608 4.69138 21.9247 4.57427C21.4887 4.45717 21.0339 4.4271 20.5862 4.4858C20.1162 4.5483 19.6912 4.7358 19.2462 4.97205C19.086 5.06187 18.9057 5.10956 18.722 5.11065C18.5384 5.11175 18.3575 5.06621 18.1962 4.9783C18.039 4.8827 17.9086 4.74867 17.8174 4.58882C17.7263 4.42898 17.6772 4.24856 17.675 4.06455C17.6562 3.56205 17.6075 3.09955 17.425 2.66205C17.2524 2.24486 16.9992 1.86577 16.6801 1.54641C16.361 1.22705 15.982 0.973693 15.565 0.800801C15.2025 0.650801 14.8275 0.592051 14.4312 0.565801C14.0512 0.539551 13.5875 0.539551 13.0312 0.539551H12.9687ZM11.1525 2.5333C11.2487 2.4933 11.395 2.45705 11.6962 2.4358C12.005 2.41455 12.405 2.41455 13 2.41455C13.595 2.41455 13.995 2.41455 14.3037 2.4358C14.605 2.45705 14.7512 2.4933 14.8475 2.5333C15.2312 2.69205 15.535 2.9958 15.6937 3.37955C15.7437 3.49955 15.785 3.6883 15.8012 4.13455C15.8387 5.12455 16.35 6.0783 17.2575 6.60205C18.165 7.12705 19.2462 7.09205 20.1225 6.62955C20.5175 6.4208 20.7012 6.36205 20.8312 6.3458C21.2419 6.29153 21.6574 6.40259 21.9862 6.65455C22.0687 6.7183 22.1737 6.82705 22.3425 7.07705C22.5162 7.33455 22.7162 7.6808 23.0137 8.1958C23.3112 8.7108 23.51 9.0583 23.6462 9.3358C23.78 9.60705 23.8212 9.75205 23.8337 9.8558C23.888 10.2665 23.7769 10.682 23.525 11.0108C23.445 11.1146 23.3025 11.2446 22.925 11.482C22.085 12.0096 21.515 12.9296 21.515 13.9771C21.515 15.0246 22.085 15.9446 22.925 16.4721C23.3025 16.7096 23.445 16.8396 23.525 16.9433C23.7775 17.2721 23.8875 17.687 23.8337 18.0983C23.8212 18.2021 23.7787 18.3483 23.6462 18.6183C23.51 18.8971 23.3112 19.2433 23.0137 19.7583C22.7162 20.2733 22.515 20.6196 22.3425 20.8771C22.1737 21.1271 22.0687 21.2358 21.9862 21.2996C21.6574 21.5515 21.2419 21.6626 20.8312 21.6083C20.7012 21.5921 20.5187 21.5333 20.1225 21.3246C19.2475 20.8621 18.165 20.8271 17.2575 21.3508C16.35 21.8758 15.8387 22.8296 15.8012 23.8196C15.785 24.2658 15.7437 24.4546 15.6937 24.5746C15.6152 24.7643 15.5 24.9367 15.3548 25.0819C15.2096 25.2271 15.0372 25.3423 14.8475 25.4208C14.7512 25.4608 14.605 25.4971 14.3037 25.5183C13.995 25.5396 13.595 25.5396 13 25.5396C12.405 25.5396 12.005 25.5396 11.6962 25.5183C11.395 25.4971 11.2487 25.4608 11.1525 25.4208C10.9627 25.3423 10.7903 25.2271 10.6451 25.0819C10.4999 24.9367 10.3847 24.7643 10.3062 24.5746C10.2562 24.4546 10.215 24.2658 10.1987 23.8196C10.1612 22.8296 9.64996 21.8758 8.74246 21.3521C7.83496 20.8271 6.75371 20.8621 5.87746 21.3246C5.48246 21.5333 5.29871 21.5921 5.16871 21.6083C4.75801 21.6626 4.34256 21.5515 4.01371 21.2996C3.93121 21.2358 3.82621 21.1271 3.65746 20.8771C3.42235 20.5111 3.1985 20.138 2.98621 19.7583C2.68871 19.2433 2.48996 18.8958 2.35371 18.6183C2.21996 18.3471 2.17871 18.2021 2.16621 18.0983C2.11194 17.6876 2.223 17.2721 2.47496 16.9433C2.55496 16.8396 2.69746 16.7096 3.07496 16.4721C3.91496 15.9446 4.48496 15.0246 4.48496 13.9771C4.48496 12.9296 3.91496 12.0096 3.07496 11.482C2.69746 11.2446 2.55496 11.1146 2.47496 11.0108C2.223 10.682 2.11194 10.2665 2.16621 9.8558C2.17871 9.75205 2.22121 9.6058 2.35371 9.3358C2.48996 9.05705 2.68871 8.7108 2.98621 8.1958C3.28371 7.6808 3.48496 7.33455 3.65746 7.07705C3.82621 6.82705 3.93121 6.7183 4.01371 6.65455C4.34256 6.40259 4.75801 6.29153 5.16871 6.3458C5.29871 6.36205 5.48121 6.4208 5.87746 6.62955C6.75246 7.09205 7.83496 7.12705 8.74246 6.60205C9.64996 6.0783 10.1612 5.12455 10.1987 4.13455C10.215 3.6883 10.2562 3.49955 10.3062 3.37955C10.465 2.9958 10.7687 2.69205 11.1525 2.5333Z" fill="white"/>
</svg>
