<svg width="113" height="105" viewBox="0 0 113 105" fill="none" xmlns="http://www.w3.org/2000/svg">
<path d="M2.37627 66.5319V64.1492H19.0119V66.5319H12.0371V86.3301H9.35112V66.5319H2.37627ZM37.7135 64.1492H40.3995V78.8354C40.3995 80.3516 40.0421 81.7055 39.3273 82.8968C38.6197 84.0809 37.6196 85.016 36.3272 85.7019C35.0348 86.3806 33.5185 86.72 31.7784 86.72C30.0383 86.72 28.522 86.3806 27.2296 85.7019C25.9371 85.016 24.9335 84.0809 24.2187 82.8968C23.5111 81.7055 23.1573 80.3516 23.1573 78.8354V64.1492H25.8433V78.6188C25.8433 79.7018 26.0815 80.6657 26.5581 81.5105C27.0346 82.3481 27.7133 83.0087 28.5942 83.4925C29.4823 83.969 30.5437 84.2073 31.7784 84.2073C33.0131 84.2073 34.0745 83.969 34.9626 83.4925C35.8507 83.0087 36.5294 82.3481 36.9987 81.5105C37.4752 80.6657 37.7135 79.7018 37.7135 78.6188V64.1492ZM45.7633 86.3301V64.1492H59.0631V66.5319H48.4492V74.0266H58.0667V76.4093H48.4492V86.3301H45.7633ZM63.6634 86.3301V64.1492H76.9633V66.5319H66.3494V74.0266H75.9669V76.4093H66.3494V86.3301H63.6634Z" fill="white"/>
<path d="M83.7775 55.6354L91.6691 68.3695H91.9083L99.7998 55.6354H104.164L94.5388 70.9402L104.164 86.2451H99.7998L91.9083 73.7501H91.6691L83.7775 86.2451H79.4133L89.2777 70.9402L79.4133 55.6354H83.7775Z" fill="#FF8F1F"/>
<path fill-rule="evenodd" clip-rule="evenodd" d="M100.827 35.1196C102.382 35.6071 103.911 35.8426 105.581 35.6491C107.135 36.7888 108.985 37.0553 110.862 37.283C108.697 37.7252 102.603 37.7992 100.828 35.1196M93.5143 31.151C93.5143 31.151 94.6795 32.1978 94.7304 33.195C94.7543 33.808 94.6208 34.417 94.3423 34.9637C94.3423 34.9637 92.9406 34.086 93.2269 32.6157L93.5143 31.151ZM82.8875 6.94125C93.8316 15.0487 93.6978 17.347 95.7264 18.6304C95.7264 18.6304 97.8036 20.4379 98.479 20.5739C99.1544 20.7098 101.453 23.479 101.621 24.7625C101.789 26.0459 101.289 26.5202 101.289 26.5202C101.289 26.5202 100.377 25.9453 99.8022 25.1339C99.2274 24.3225 99.0594 23.783 99.0594 23.783C99.0594 23.783 100.229 30.1218 105.608 32.3747C105.931 32.5682 106.286 32.7627 106.678 32.954C109.582 34.3723 112.014 34.3723 112.014 34.3723C112.014 34.3723 104.988 34.7106 102.353 33.9677C99.7171 33.2248 97.6908 30.7917 97.6908 30.7917C97.6908 30.7917 97.9605 32.2111 98.636 33.0888C99.0152 33.5926 99.4436 34.0574 99.915 34.4762C99.915 34.4762 98.7664 36.8408 96.5986 37.9905C94.4308 39.1402 91.3288 41.9436 90.7197 43.7676C90.1106 45.5917 89.842 46.3356 89.842 46.3356L87.4774 46.6054C87.4774 46.6054 82.8831 44.2408 82.8831 42.4168C82.8831 40.5928 82.7471 38.9699 82.7471 38.9699L80.891 37.1138L77.8355 35.0599L74.3257 37.1371L76.6361 40.1461L71.0358 50.1539L65.4399 51.1831L63.5794 52.2256L61.3331 51.4108L63.4335 44.6675L65.7362 45.281L66.1784 45.5441L67.5049 45.1019L69.0924 41.8331L66.6504 40.5563C66.4618 40.5359 66.2711 40.5563 66.091 40.616C65.1901 40.9001 64.2571 40.9476 63.3207 40.9741C62.9079 40.9937 62.4942 40.9845 62.0826 40.9465C61.0833 40.8301 60.0884 40.6937 59.0979 40.5375C58.9119 40.4997 58.7188 40.5206 58.5451 40.5972L53.9884 49.5979L56.7786 56.6607L57.3413 59.3536H48.7186C48.6869 59.3533 48.6561 59.3432 48.6302 59.3249C48.5926 59.2934 48.5646 59.2521 48.5495 59.2055L48.198 58.687L48.7065 55.2767L46.2302 48.9755L47.4352 44.3768C49.2692 41.539 52.6242 35.9078 55.8644 31.6827C56.3585 31.078 56.8593 30.7475 58.3959 30.3064C59.9325 29.8653 61.6935 28.5995 61.6935 28.5995L64.3356 29.0417L64.9988 29.097C64.9988 29.097 66.4304 29.2617 66.8151 29.3181C67.1998 29.3745 67.4784 30.2544 67.4784 30.2544C67.4784 30.2544 68.5242 30.1439 69.2958 29.7017C70.0674 29.2595 70.2907 28.3807 71.332 28.4359C72.3734 28.4912 75.0486 29.2606 75.6257 29.0406C76.2027 28.8206 77.002 28.1043 77.002 28.1043C76.9199 27.9529 76.7954 27.8288 76.6438 27.7472C76.3697 27.5825 75.4278 27.3349 75.4278 27.3349C75.787 27.1959 76.1704 27.1301 76.5554 27.1414C77.1623 27.1691 77.7393 27.4731 78.0699 27.5272C78.4004 27.5814 80.0785 24.6917 80.2443 24.1147C80.4101 23.5376 78.8404 22.6002 78.8404 22.6002L74.2704 18.3618C74.2704 18.3618 74.4915 17.1458 73.1152 14.9492C71.7389 12.7527 67.8863 9.27931 67.8863 9.27931C67.8863 9.27931 67.7205 5.20566 65.7395 4.98457C63.7585 4.76348 62.5458 7.35248 62.5458 7.35248C62.5458 7.35248 62.4905 7.24193 61.4403 7.24193C60.3901 7.24193 52.4131 5.97617 51.2557 5.31621C50.337 4.79001 48.0963 4.54238 47.2152 4.465V2.32371C58.2665 -1.95776 73.1516 -0.268606 82.8875 6.94346V6.94125ZM72.1844 18.2789C72.1844 18.2789 71.4691 17.4808 70.8578 17.4255C70.2465 17.3702 69.235 17.3979 69.235 17.3979C69.235 17.3979 70.1426 18.5542 70.996 18.6371C71.8494 18.72 72.1844 18.2789 72.1844 18.2789Z" fill="white"/>
<path fill-rule="evenodd" clip-rule="evenodd" d="M8.62264 43.7016V22.0543H0V59.3495H8.62264V43.7016ZM16.5157 26.4298V59.3495H25.1383V9.24309H16.5157V26.4298ZM33.0336 14.6643V59.3495H41.6562V0.408203H33.0336V14.6643Z" fill="#FF8F1F"/>
<path d="M1.57862 96.2205V95.5057H6.5695V96.2205H4.47697V102.16H3.67115V96.2205H1.57862ZM7.19092 102.16V97.1693H7.93175V97.9231H7.98374C8.07472 97.6762 8.23935 97.4758 8.47763 97.322C8.71591 97.1682 8.98452 97.0913 9.28345 97.0913C9.33977 97.0913 9.41017 97.0924 9.49465 97.0945C9.57913 97.0967 9.64304 97.1 9.68636 97.1043V97.8841C9.66037 97.8776 9.6008 97.8679 9.50765 97.8549C9.41667 97.8397 9.32028 97.8321 9.21847 97.8321C8.97585 97.8321 8.75924 97.883 8.56861 97.9848C8.38015 98.0845 8.23069 98.2231 8.12021 98.4008C8.0119 98.5762 7.95775 98.7766 7.95775 99.0019V102.16H7.19092ZM12.064 102.277C11.7478 102.277 11.4607 102.218 11.203 102.098C10.9452 101.977 10.7405 101.803 10.5888 101.575C10.4372 101.346 10.3614 101.068 10.3614 100.743C10.3614 100.458 10.4177 100.226 10.5304 100.048C10.643 99.8683 10.7935 99.7275 10.982 99.6257C11.1705 99.5239 11.3784 99.4481 11.6059 99.3983C11.8355 99.3463 12.0662 99.3051 12.298 99.2748C12.6012 99.2358 12.8471 99.2066 13.0355 99.1871C13.2262 99.1654 13.3648 99.1297 13.4515 99.0798C13.5403 99.03 13.5847 98.9434 13.5847 98.8199V98.7939C13.5847 98.4733 13.4969 98.2242 13.3215 98.0466C13.1482 97.869 12.885 97.7801 12.5319 97.7801C12.1658 97.7801 11.8788 97.8603 11.6709 98.0206C11.4629 98.1809 11.3167 98.352 11.2322 98.534L10.5044 98.274C10.6343 97.9708 10.8076 97.7347 11.0242 97.5657C11.243 97.3946 11.4813 97.2754 11.7391 97.2083C11.999 97.139 12.2546 97.1043 12.5059 97.1043C12.6662 97.1043 12.8503 97.1238 13.0583 97.1628C13.2684 97.1996 13.4709 97.2765 13.6659 97.3935C13.863 97.5105 14.0266 97.687 14.1565 97.9231C14.2865 98.1592 14.3515 98.4755 14.3515 98.8719V102.16H13.5847V101.484H13.5457C13.4937 101.593 13.407 101.709 13.2857 101.832C13.1644 101.955 13.0031 102.061 12.8016 102.147C12.6001 102.234 12.3543 102.277 12.064 102.277ZM12.181 101.588C12.4843 101.588 12.7399 101.529 12.9478 101.41C13.1579 101.29 13.3161 101.137 13.4222 100.948C13.5305 100.76 13.5847 100.562 13.5847 100.354V99.6517C13.5522 99.6907 13.4807 99.7265 13.3702 99.7589C13.2619 99.7893 13.1363 99.8163 12.9933 99.8402C12.8525 99.8618 12.715 99.8813 12.5806 99.8987C12.4485 99.9138 12.3413 99.9268 12.259 99.9377C12.0597 99.9636 11.8734 100.006 11.7001 100.064C11.529 100.121 11.3903 100.206 11.2842 100.321C11.1802 100.434 11.1282 100.588 11.1282 100.782C11.1282 101.049 11.2268 101.25 11.4239 101.387C11.6232 101.521 11.8756 101.588 12.181 101.588ZM17.6357 102.264C17.2198 102.264 16.8526 102.159 16.5342 101.949C16.2158 101.737 15.9667 101.438 15.7869 101.052C15.6071 100.664 15.5172 100.206 15.5172 99.6777C15.5172 99.1535 15.6071 98.6986 15.7869 98.313C15.9667 97.9274 16.2169 97.6296 16.5374 97.4195C16.858 97.2094 17.2285 97.1043 17.6487 97.1043C17.9736 97.1043 18.2303 97.1584 18.4188 97.2668C18.6094 97.3729 18.7545 97.4942 18.8542 97.6307C18.956 97.765 19.0351 97.8755 19.0914 97.9621H19.1564V95.5057H19.9232V102.16H19.1824V101.393H19.0914C19.0351 101.484 18.9549 101.599 18.8509 101.738C18.7469 101.874 18.5986 101.997 18.4058 102.105C18.213 102.211 17.9563 102.264 17.6357 102.264ZM17.7397 101.575C18.0473 101.575 18.3072 101.495 18.5195 101.335C18.7318 101.172 18.8932 100.948 19.0036 100.662C19.1141 100.374 19.1694 100.042 19.1694 99.6647C19.1694 99.2921 19.1152 98.9661 19.0069 98.6867C18.8986 98.4051 18.7383 98.1863 18.526 98.0303C18.3137 97.8722 18.0516 97.7931 17.7397 97.7931C17.4147 97.7931 17.144 97.8765 16.9274 98.0433C16.7129 98.208 16.5515 98.4322 16.4432 98.7159C16.3371 98.9975 16.284 99.3138 16.284 99.6647C16.284 100.02 16.3382 100.343 16.4465 100.633C16.5569 100.921 16.7194 101.151 16.9339 101.322C17.1505 101.491 17.4191 101.575 17.7397 101.575ZM23.5266 102.264C23.0457 102.264 22.6309 102.158 22.2822 101.946C21.9356 101.731 21.668 101.432 21.4796 101.049C21.2933 100.663 21.2001 100.215 21.2001 99.7037C21.2001 99.1925 21.2933 98.7419 21.4796 98.352C21.668 97.9599 21.9302 97.6545 22.2659 97.4357C22.6038 97.2148 22.9981 97.1043 23.4486 97.1043C23.7086 97.1043 23.9653 97.1476 24.2187 97.2343C24.4722 97.3209 24.7029 97.4617 24.9108 97.6567C25.1188 97.8495 25.2845 98.1051 25.408 98.4235C25.5314 98.7419 25.5932 99.134 25.5932 99.5997V99.9247H21.746V99.2618H24.8133C24.8133 98.9802 24.757 98.7289 24.6444 98.508C24.5339 98.287 24.3758 98.1126 24.17 97.9848C23.9664 97.857 23.7259 97.7931 23.4486 97.7931C23.1432 97.7931 22.8789 97.869 22.6558 98.0206C22.4349 98.1701 22.2648 98.365 22.1457 98.6055C22.0265 98.8459 21.967 99.1037 21.967 99.3788V99.8207C21.967 100.198 22.032 100.517 22.1619 100.779C22.2941 101.039 22.4771 101.237 22.7111 101.374C22.945 101.508 23.2169 101.575 23.5266 101.575C23.7281 101.575 23.91 101.547 24.0725 101.491C24.2371 101.432 24.379 101.346 24.4982 101.231C24.6173 101.114 24.7094 100.969 24.7743 100.795L25.5152 101.003C25.4372 101.255 25.3061 101.476 25.122 101.666C24.9379 101.855 24.7104 102.002 24.4397 102.108C24.1689 102.212 23.8646 102.264 23.5266 102.264ZM26.7597 102.16V97.1693H27.5005V97.9231H27.5525C27.6435 97.6762 27.8081 97.4758 28.0464 97.322C28.2846 97.1682 28.5532 97.0913 28.8522 97.0913C28.9085 97.0913 28.9789 97.0924 29.0634 97.0945C29.1479 97.0967 29.2118 97.1 29.2551 97.1043V97.8841C29.2291 97.8776 29.1695 97.8679 29.0764 97.8549C28.9854 97.8397 28.889 97.8321 28.7872 97.8321C28.5446 97.8321 28.328 97.883 28.1373 97.9848C27.9489 98.0845 27.7994 98.2231 27.6889 98.4008C27.5806 98.5762 27.5265 98.7766 27.5265 99.0019V102.16H26.7597ZM33.6993 98.287L33.0104 98.482C32.9671 98.3672 32.9032 98.2556 32.8187 98.1473C32.7364 98.0368 32.6238 97.9459 32.4808 97.8744C32.3378 97.8029 32.1548 97.7671 31.9317 97.7671C31.6262 97.7671 31.3717 97.8375 31.1681 97.9783C30.9666 98.117 30.8659 98.2935 30.8659 98.508C30.8659 98.6986 30.9352 98.8491 31.0739 98.9596C31.2125 99.0701 31.4291 99.1622 31.7237 99.2358L32.4646 99.4178C32.9108 99.5261 33.2433 99.6918 33.4621 99.9149C33.6809 100.136 33.7903 100.421 33.7903 100.769C33.7903 101.055 33.7079 101.311 33.5433 101.536C33.3809 101.762 33.1534 101.939 32.861 102.069C32.5685 102.199 32.2284 102.264 31.8407 102.264C31.3316 102.264 30.9103 102.154 30.5767 101.933C30.2431 101.712 30.0319 101.389 29.9431 100.964L30.671 100.782C30.7403 101.051 30.8713 101.253 31.0641 101.387C31.2591 101.521 31.5136 101.588 31.8277 101.588C32.1851 101.588 32.4689 101.512 32.679 101.361C32.8913 101.207 32.9974 101.023 32.9974 100.808C32.9974 100.635 32.9368 100.49 32.8155 100.373C32.6942 100.254 32.5079 100.165 32.2566 100.107L31.4248 99.9117C30.9677 99.8034 30.632 99.6355 30.4175 99.408C30.2052 99.1784 30.0991 98.8914 30.0991 98.547C30.0991 98.2654 30.1782 98.0163 30.3363 97.7996C30.4966 97.583 30.7143 97.413 30.9894 97.2895C31.2667 97.166 31.5808 97.1043 31.9317 97.1043C32.4256 97.1043 32.8133 97.2126 33.0949 97.4292C33.3787 97.6458 33.5801 97.9318 33.6993 98.287ZM41.989 95.5057H42.7948V99.9117C42.7948 100.367 42.6876 100.773 42.4731 101.13C42.2608 101.485 41.9608 101.766 41.5731 101.972C41.1853 102.175 40.7304 102.277 40.2084 102.277C39.6863 102.277 39.2314 102.175 38.8437 101.972C38.4559 101.766 38.1548 101.485 37.9404 101.13C37.7281 100.773 37.622 100.367 37.622 99.9117V95.5057H38.4278V99.8467C38.4278 100.172 38.4993 100.461 38.6422 100.714C38.7852 100.966 38.9888 101.164 39.2531 101.309C39.5195 101.452 39.838 101.523 40.2084 101.523C40.5788 101.523 40.8972 101.452 41.1637 101.309C41.4301 101.164 41.6337 100.966 41.7745 100.714C41.9175 100.461 41.989 100.172 41.989 99.8467V95.5057ZM45.0668 95.5057V102.16H44.3V95.5057H45.0668ZM48.6419 97.1693V97.8191H46.0554V97.1693H48.6419ZM46.8093 95.9735H47.5761V100.73C47.5761 100.947 47.6075 101.11 47.6703 101.218C47.7353 101.324 47.8176 101.395 47.9173 101.432C48.0191 101.467 48.1263 101.484 48.2389 101.484C48.3234 101.484 48.3927 101.48 48.4469 101.471C48.5011 101.46 48.5444 101.452 48.5769 101.445L48.7328 102.134C48.6809 102.154 48.6083 102.173 48.5151 102.193C48.422 102.214 48.3039 102.225 48.161 102.225C47.9443 102.225 47.7321 102.179 47.5241 102.085C47.3183 101.992 47.1472 101.85 47.0107 101.66C46.8764 101.469 46.8093 101.229 46.8093 100.938V95.9735ZM49.7953 102.16V97.1693H50.5622V102.16H49.7953ZM50.1853 96.3375C50.0358 96.3375 49.9069 96.2866 49.7986 96.1847C49.6925 96.0829 49.6394 95.9605 49.6394 95.8176C49.6394 95.6746 49.6925 95.5522 49.7986 95.4504C49.9069 95.3486 50.0358 95.2977 50.1853 95.2977C50.3347 95.2977 50.4625 95.3486 50.5687 95.4504C50.677 95.5522 50.7311 95.6746 50.7311 95.8176C50.7311 95.9605 50.677 96.0829 50.5687 96.1847C50.4625 96.2866 50.3347 96.3375 50.1853 96.3375ZM51.9667 102.16V97.1693H52.7075V97.9491H52.7725C52.8765 97.6827 53.0443 97.4758 53.2761 97.3285C53.5079 97.179 53.7863 97.1043 54.1112 97.1043C54.4405 97.1043 54.7145 97.179 54.9333 97.3285C55.1542 97.4758 55.3264 97.6827 55.4499 97.9491H55.5019C55.6297 97.6913 55.8214 97.4866 56.077 97.335C56.3326 97.1812 56.6391 97.1043 56.9965 97.1043C57.4428 97.1043 57.8078 97.244 58.0915 97.5234C58.3753 97.8007 58.5172 98.2329 58.5172 98.8199V102.16H57.7504V98.8199C57.7504 98.4517 57.6496 98.1885 57.4482 98.0303C57.2467 97.8722 57.0095 97.7931 56.7366 97.7931C56.3857 97.7931 56.1138 97.8993 55.921 98.1116C55.7282 98.3217 55.6319 98.5881 55.6319 98.9109V102.16H54.852V98.7419C54.852 98.4582 54.76 98.2296 54.5758 98.0563C54.3917 97.8809 54.1545 97.7931 53.8642 97.7931C53.665 97.7931 53.4787 97.8462 53.3054 97.9524C53.1342 98.0585 52.9956 98.2058 52.8895 98.3943C52.7855 98.5805 52.7335 98.7961 52.7335 99.0409V102.16H51.9667ZM61.3879 102.277C61.0717 102.277 60.7846 102.218 60.5269 102.098C60.2691 101.977 60.0644 101.803 59.9128 101.575C59.7611 101.346 59.6853 101.068 59.6853 100.743C59.6853 100.458 59.7416 100.226 59.8543 100.048C59.9669 99.8683 60.1175 99.7275 60.3059 99.6257C60.4944 99.5239 60.7023 99.4481 60.9298 99.3983C61.1594 99.3463 61.3901 99.3051 61.6219 99.2748C61.9251 99.2358 62.171 99.2066 62.3595 99.1871C62.5501 99.1654 62.6887 99.1297 62.7754 99.0798C62.8642 99.03 62.9086 98.9434 62.9086 98.8199V98.7939C62.9086 98.4733 62.8209 98.2242 62.6454 98.0466C62.4721 97.869 62.2089 97.7801 61.8558 97.7801C61.4897 97.7801 61.2027 97.8603 60.9948 98.0206C60.7868 98.1809 60.6406 98.352 60.5561 98.534L59.8283 98.274C59.9583 97.9708 60.1315 97.7347 60.3482 97.5657C60.5669 97.3946 60.8052 97.2754 61.063 97.2083C61.3229 97.139 61.5786 97.1043 61.8298 97.1043C61.9901 97.1043 62.1743 97.1238 62.3822 97.1628C62.5923 97.1996 62.7949 97.2765 62.9898 97.3935C63.1869 97.5105 63.3505 97.687 63.4805 97.9231C63.6104 98.1592 63.6754 98.4755 63.6754 98.8719V102.16H62.9086V101.484H62.8696C62.8176 101.593 62.731 101.709 62.6097 101.832C62.4884 101.955 62.327 102.061 62.1255 102.147C61.9241 102.234 61.6782 102.277 61.3879 102.277ZM61.5049 101.588C61.8082 101.588 62.0638 101.529 62.2717 101.41C62.4819 101.29 62.64 101.137 62.7461 100.948C62.8544 100.76 62.9086 100.562 62.9086 100.354V99.6517C62.8761 99.6907 62.8046 99.7265 62.6941 99.7589C62.5858 99.7893 62.4602 99.8163 62.3172 99.8402C62.1764 99.8618 62.0389 99.8813 61.9046 99.8987C61.7724 99.9138 61.6652 99.9268 61.5829 99.9377C61.3836 99.9636 61.1973 100.006 61.024 100.064C60.8529 100.121 60.7142 100.206 60.6081 100.321C60.5041 100.434 60.4521 100.588 60.4521 100.782C60.4521 101.049 60.5507 101.25 60.7478 101.387C60.9471 101.521 61.1995 101.588 61.5049 101.588ZM67.2456 97.1693V97.8191H64.6591V97.1693H67.2456ZM65.413 95.9735H66.1798V100.73C66.1798 100.947 66.2112 101.11 66.274 101.218C66.339 101.324 66.4213 101.395 66.521 101.432C66.6228 101.467 66.73 101.484 66.8426 101.484C66.9271 101.484 66.9964 101.48 67.0506 101.471C67.1048 101.46 67.1481 101.452 67.1806 101.445L67.3365 102.134C67.2845 102.154 67.212 102.173 67.1188 102.193C67.0257 102.214 66.9076 102.225 66.7647 102.225C66.548 102.225 66.3358 102.179 66.1278 102.085C65.922 101.992 65.7509 101.85 65.6144 101.66C65.4801 101.469 65.413 101.229 65.413 100.938V95.9735ZM70.438 102.264C69.9571 102.264 69.5422 102.158 69.1935 101.946C68.8469 101.731 68.5794 101.432 68.3909 101.049C68.2046 100.663 68.1115 100.215 68.1115 99.7037C68.1115 99.1925 68.2046 98.7419 68.3909 98.352C68.5794 97.9599 68.8415 97.6545 69.1772 97.4357C69.5152 97.2148 69.9094 97.1043 70.36 97.1043C70.6199 97.1043 70.8766 97.1476 71.1301 97.2343C71.3835 97.3209 71.6142 97.4617 71.8222 97.6567C72.0301 97.8495 72.1958 98.1051 72.3193 98.4235C72.4428 98.7419 72.5045 99.134 72.5045 99.5997V99.9247H68.6574V99.2618H71.7247C71.7247 98.9802 71.6684 98.7289 71.5557 98.508C71.4452 98.287 71.2871 98.1126 71.0813 97.9848C70.8777 97.857 70.6373 97.7931 70.36 97.7931C70.0546 97.7931 69.7903 97.869 69.5672 98.0206C69.3462 98.1701 69.1762 98.365 69.057 98.6055C68.9379 98.8459 68.8783 99.1037 68.8783 99.3788V99.8207C68.8783 100.198 68.9433 100.517 69.0733 100.779C69.2054 101.039 69.3885 101.237 69.6224 101.374C69.8563 101.508 70.1282 101.575 70.438 101.575C70.6394 101.575 70.8214 101.547 70.9838 101.491C71.1485 101.432 71.2904 101.346 71.4095 101.231C71.5286 101.114 71.6207 100.969 71.6857 100.795L72.4265 101.003C72.3485 101.255 72.2175 101.476 72.0334 101.666C71.8492 101.855 71.6218 102.002 71.351 102.108C71.0802 102.212 70.7759 102.264 70.438 102.264ZM76.3484 102.16V95.5057H80.3385V96.2205H77.1542V98.469H80.0396V99.1838H77.1542V102.16H76.3484ZM84.4472 100.12V97.1693H85.214V102.16H84.4472V101.315H84.3952C84.2782 101.569 84.0963 101.784 83.8493 101.962C83.6024 102.137 83.2904 102.225 82.9135 102.225C82.6016 102.225 82.3243 102.157 82.0817 102.02C81.8391 101.882 81.6485 101.674 81.5098 101.397C81.3712 101.117 81.3019 100.765 81.3019 100.341V97.1693H82.0687V100.289C82.0687 100.652 82.1705 100.943 82.3742 101.159C82.5799 101.376 82.842 101.484 83.1605 101.484C83.3511 101.484 83.545 101.436 83.7421 101.338C83.9414 101.241 84.1082 101.091 84.2425 100.89C84.379 100.688 84.4472 100.432 84.4472 100.12ZM87.3853 99.1578V102.16H86.6185V97.1693H87.3593V97.9491H87.4243C87.5413 97.6957 87.7189 97.492 87.9572 97.3382C88.1955 97.1823 88.5031 97.1043 88.88 97.1043C89.2179 97.1043 89.5136 97.1736 89.7671 97.3122C90.0205 97.4487 90.2176 97.6567 90.3584 97.9361C90.4992 98.2134 90.5696 98.5643 90.5696 98.9889V102.16H89.8028V99.0409C89.8028 98.6488 89.701 98.3433 89.4974 98.1246C89.2937 97.9036 89.0143 97.7931 88.6591 97.7931C88.4143 97.7931 88.1955 97.8462 88.0027 97.9524C87.8121 98.0585 87.6615 98.2134 87.5511 98.417C87.4406 98.6206 87.3853 98.8676 87.3853 99.1578ZM93.8554 102.264C93.4395 102.264 93.0724 102.159 92.7539 101.949C92.4355 101.737 92.1864 101.438 92.0066 101.052C91.8268 100.664 91.7369 100.206 91.7369 99.6777C91.7369 99.1535 91.8268 98.6986 92.0066 98.313C92.1864 97.9274 92.4366 97.6296 92.7572 97.4195C93.0778 97.2094 93.4482 97.1043 93.8684 97.1043C94.1934 97.1043 94.4501 97.1584 94.6385 97.2668C94.8291 97.3729 94.9743 97.4942 95.0739 97.6307C95.1757 97.765 95.2548 97.8755 95.3111 97.9621H95.3761V95.5057H96.1429V102.16H95.4021V101.393H95.3111C95.2548 101.484 95.1747 101.599 95.0707 101.738C94.9667 101.874 94.8183 101.997 94.6255 102.105C94.4327 102.211 94.176 102.264 93.8554 102.264ZM93.9594 101.575C94.267 101.575 94.527 101.495 94.7392 101.335C94.9515 101.172 95.1129 100.948 95.2234 100.662C95.3339 100.374 95.3891 100.042 95.3891 99.6647C95.3891 99.2921 95.3349 98.9661 95.2266 98.6867C95.1183 98.4051 94.958 98.1863 94.7457 98.0303C94.5335 97.8722 94.2714 97.7931 93.9594 97.7931C93.6345 97.7931 93.3637 97.8765 93.1471 98.0433C92.9327 98.208 92.7713 98.4322 92.663 98.7159C92.5568 98.9975 92.5038 99.3138 92.5038 99.6647C92.5038 100.02 92.5579 100.343 92.6662 100.633C92.7767 100.921 92.9392 101.151 93.1536 101.322C93.3702 101.491 93.6388 101.575 93.9594 101.575ZM100.331 102.16V95.5057H104.321V96.2205H101.137V98.469H104.022V99.1838H101.137V102.16H100.331ZM106.091 95.5057L107.807 98.274H107.859L109.575 95.5057H110.523L108.431 98.8329L110.523 102.16H109.575L107.859 99.4438H107.807L106.091 102.16H105.143L107.287 98.8329L105.143 95.5057H106.091Z" fill="white"/>
</svg>
